<?xml version="1.0" encoding="iso-8859-1"?>
<!-- Generator: Adobe Illustrator 19.0.0, SVG Export Plug-In . SVG Version: 6.00 Build 0)  -->
<svg xmlns="http://www.w3.org/2000/svg" xmlns:xlink="http://www.w3.org/1999/xlink" version="1.1" id="Layer_1" x="0px" y="0px" viewBox="0 0 511.999 511.999" style="enable-background:new 0 0 511.999 511.999;" xml:space="preserve" width="512" height="512">
<g>
	<g>
		<path style="fill:#E34B4C;" d="M159.219,86.264c-15.154-0.483-46.696,0.841-73.845,17.098l-36.789,75.26    c89.103,5.807,116.522-25.708,119.417-82.864C168.258,90.697,164.284,86.426,159.219,86.264z"/>
		<path style="fill:#E34B4C;" d="M352.78,86.264c15.154-0.483,46.696,0.841,73.845,17.098l36.789,75.26    c-89.103,5.807-116.522-25.708-119.417-82.864C343.741,90.697,347.715,86.426,352.78,86.264z"/>
		<path style="fill:#E34B4C;" d="M100.463,276.868c-0.116-0.074-0.231-0.149-0.346-0.225c-29.05-19.278-52.983-48.809-62.71-82.474    c-3.102-10.735-3.369-21.908-2.592-32.97c0.554-7.884,7.394-13.827,15.278-13.273c7.163,0.503,12.723,6.195,13.265,13.146    c2.59,33.19,28.394,59.436,56.515,74.418c12.156,6.476,20.863,18.36,14.028,32.395C127.9,280.206,111.745,284.06,100.463,276.868z    "/>
		<path style="fill:#E34B4C;" d="M411.536,276.868c0.116-0.074,0.231-0.149,0.346-0.225c29.05-19.278,52.983-48.809,62.71-82.474    c3.102-10.735,3.369-21.908,2.592-32.97c-0.554-7.884-7.394-13.827-15.278-13.273c-7.163,0.503-12.723,6.195-13.265,13.146    c-2.59,33.19-28.394,59.436-56.515,74.418c-12.156,6.476-20.863,18.36-14.028,32.395    C384.099,280.206,400.254,284.06,411.536,276.868z"/>
		<path style="fill:#FD6F71;" d="M248.935,382.841c-19.215,9.648-38.306,19.823-55.295,33.114    c-11.981,9.371-23.067,20.308-28.339,34.889c-4.573,12.647-0.207,25.856,5.258,37.412c1.892,4.001,0.182,8.778-3.819,10.67    c-3.253,1.538-7.024,0.687-9.335-1.832c-15.048-16.397-22.299-38.801-15.785-60.621c5.332-17.858,17.055-33.053,30.56-45.577    c18.342-17.01,40.736-30.381,64.214-38.965c8.652-3.163,18.229,1.286,21.393,9.938    C260.829,370.194,256.615,378.985,248.935,382.841z"/>
		<path style="fill:#FD6F71;" d="M177.42,371.003c-16.212,4.458-32.352,9.286-47.876,15.794    c-14.736,6.177-29.3,13.661-40.561,25.233c-12.463,13.731-13.389,29.669-9.062,47.003c1.072,4.294-1.54,8.644-5.834,9.716    c-3.493,0.872-7.026-0.704-8.798-3.629c-11.636-19.205-14.371-42.217-3.608-62.533c11.41-21.537,32.321-36.476,53.844-46.826    c17.553-8.441,36.384-14.544,55.647-17.524c9.104-1.408,17.625,4.83,19.033,13.934C191.56,360.928,185.705,368.725,177.42,371.003    z"/>
		<path style="fill:#FD6F71;" d="M142.998,334.384c-15.391,0.285-30.802,0.858-46.082,2.837c-15.025,1.946-30.67,4.82-44.246,11.868    c-18.646,9.021-25.846,25.784-25.962,45.757c-0.027,4.588-3.221,8.614-8.066,8.585c-3.6-0.022-6.631-2.425-7.623-5.698    c-8.706-28.748,1.557-56.768,26.206-73.884c30.191-20.866,72.076-26.25,107.851-22.757c9.168,0.895,15.875,9.053,14.98,18.221    c-0.831,8.516-7.929,14.908-16.281,15.058C143.516,334.374,143.257,334.379,142.998,334.384z"/>
		<path style="fill:#FD6F71;" d="M263.064,382.841c19.215,9.648,38.306,19.823,55.295,33.114    c11.981,9.371,23.067,20.308,28.339,34.889c4.573,12.647,0.207,25.856-5.258,37.412c-1.892,4.001-0.182,8.778,3.819,10.67    c3.253,1.538,7.024,0.687,9.335-1.832c15.048-16.397,22.299-38.801,15.785-60.621c-5.332-17.858-17.055-33.053-30.56-45.577    c-18.342-17.01-40.736-30.381-64.214-38.965c-8.652-3.163-18.229,1.286-21.393,9.938    C251.17,370.194,255.384,378.985,263.064,382.841z"/>
		<path style="fill:#FD6F71;" d="M334.579,371.003c16.212,4.458,32.352,9.286,47.876,15.794c14.736,6.177,29.3,13.661,40.561,25.233    c12.463,13.731,13.389,29.669,9.062,47.003c-1.072,4.294,1.54,8.644,5.834,9.716c3.493,0.872,7.026-0.704,8.798-3.629    c11.636-19.205,14.371-42.217,3.608-62.533c-11.41-21.537-32.321-36.476-53.844-46.826c-17.553-8.441-36.384-14.544-55.647-17.524    c-9.103-1.408-17.625,4.83-19.033,13.934C320.439,360.928,326.294,368.725,334.579,371.003z"/>
		<path style="fill:#FD6F71;" d="M369.001,334.384c15.391,0.285,30.802,0.858,46.082,2.837c15.025,1.946,30.67,4.82,44.246,11.868    c18.646,9.021,25.846,25.784,25.962,45.757c0.027,4.588,3.221,8.614,8.066,8.585c3.6-0.022,6.631-2.425,7.623-5.698    c8.706-28.748-1.557-56.768-26.206-73.884c-30.191-20.866-72.076-26.25-107.851-22.757c-9.168,0.895-15.875,9.053-14.98,18.221    c0.831,8.516,7.929,14.908,16.281,15.058C368.483,334.374,368.742,334.379,369.001,334.384z"/>
		<path style="fill:#E34B4C;" d="M459.652,315.091c-28.157-13.587-62.608-16.941-92.729-14c-9.168,0.895-15.875,9.053-14.98,18.221    c0.831,8.516,7.929,14.908,16.281,15.058c0.259,0.005,0.518,0.009,0.777,0.014c15.391,0.285,30.802,0.858,46.082,2.837    c10.072,1.304,20.42,3.033,30.239,6.149C452.875,331.179,457.365,320.975,459.652,315.091z"/>
		<path style="fill:#E34B4C;" d="M396.474,355.76c-17.553-8.441-36.384-14.544-55.647-17.524    c-9.104-1.408-17.625,4.83-19.033,13.934c-1.355,8.758,4.5,16.554,12.785,18.833c16.212,4.458,32.352,9.286,47.876,15.794    c5.784,2.424,11.538,5.056,17.079,8.051c7.562-6.003,14.142-12.104,19.784-17.98c1.502-1.565,2.942-3.128,4.348-4.689    C415.218,365.712,405.905,360.295,396.474,355.76z"/>
		<path style="fill:#E34B4C;" d="M339.82,390.896c-18.342-17.01-40.736-30.381-64.214-38.965    c-8.652-3.163-18.229,1.286-21.393,9.938c-3.044,8.324,1.17,17.115,8.85,20.971c19.215,9.648,38.306,19.823,55.295,33.114    c5.4,4.224,10.612,8.771,15.198,13.821c10.41-3.326,19.998-7.227,28.797-11.524C356.378,408.041,348.47,398.918,339.82,390.896z"/>
		<path style="fill:#E34B4C;" d="M257.785,361.87c-3.163-8.652-12.741-13.101-21.393-9.938    c-23.478,8.583-45.872,21.955-64.214,38.965c-8.649,8.021-16.558,17.145-22.535,27.355c8.8,4.296,18.388,8.197,28.797,11.524    c4.586-5.05,9.798-9.597,15.198-13.821c16.989-13.291,36.08-23.465,55.295-33.114C256.615,378.985,260.829,370.194,257.785,361.87    z"/>
		<path style="fill:#E34B4C;" d="M171.173,338.236c-19.263,2.98-38.095,9.083-55.647,17.524    c-9.431,4.535-18.744,9.952-27.192,16.418c1.407,1.561,2.847,3.125,4.349,4.689c5.641,5.877,12.222,11.978,19.784,17.98    c5.541-2.995,11.295-5.627,17.079-8.051c15.525-6.508,31.664-11.335,47.876-15.794c8.285-2.278,14.14-10.075,12.785-18.833    C188.797,343.067,180.276,336.828,171.173,338.236z"/>
		<path style="fill:#E34B4C;" d="M145.076,301.091c-30.121-2.94-64.572,0.413-92.729,14c2.286,5.884,6.777,16.088,14.33,28.279    c9.819-3.116,20.167-4.845,30.239-6.149c15.279-1.979,30.69-2.552,46.082-2.837c0.259-0.005,0.518-0.01,0.777-0.014    c8.353-0.149,15.45-6.542,16.281-15.058C160.951,310.144,154.244,301.986,145.076,301.091z"/>
		<path style="fill:#FD6F71;" d="M256,411.256c141.957,0,176.883-110.326,176.883-110.326S434.009,169.833,256,169.833    S79.116,300.93,79.116,300.93S114.042,411.256,256,411.256z"/>
		<path style="fill:#FD6F71;" d="M124.944,12.307c-24.808-0.151-80.057,6.47-106.903,64.694    c-35.246,76.441,25.391,134.209,71.665,81.201c43.638-49.988,3.12-86.341,40.181-135.99    C132.933,18.132,130.037,12.338,124.944,12.307z"/>
		<path style="fill:#FD6F71;" d="M387.055,12.307c24.808-0.151,80.057,6.47,106.903,64.694    c35.246,76.441-25.391,134.209-71.665,81.201c-43.638-49.988-3.12-86.341-40.181-135.99    C379.066,18.132,381.962,12.338,387.055,12.307z"/>
	</g>
	<g>
		<path d="M183.078,217.19c-4.142,0-7.5,3.358-7.5,7.5v13.197c0,4.142,3.358,7.5,7.5,7.5s7.5-3.358,7.5-7.5V224.69    C190.578,220.548,187.22,217.19,183.078,217.19z"/>
		<path d="M328.913,245.387c4.142,0,7.5-3.358,7.5-7.5V224.69c0-4.142-3.358-7.5-7.5-7.5s-7.5,3.358-7.5,7.5v13.197    C321.413,242.029,324.771,245.387,328.913,245.387z"/>
		<path d="M278.929,231.323c-3.118-2.726-7.855-2.409-10.583,0.71c-3,3.431-7.501,5.399-12.351,5.399    c-4.85,0-9.351-1.968-12.35-5.399c-2.726-3.119-7.464-3.437-10.583-0.711c-3.119,2.726-3.437,7.464-0.711,10.583    c5.848,6.69,14.466,10.527,23.644,10.527c9.178,0,17.795-3.837,23.644-10.526C282.365,238.787,282.047,234.049,278.929,231.323z"/>
		<path d="M439.847,476.472c5.311-0.033,10.458-2.818,13.274-7.466c13.856-22.87,15.249-48.358,3.82-69.931    c-9.303-17.559-25.219-32.646-47.356-44.949c2.646-3.07,5.091-6.112,7.339-9.091c12.752,1.754,26.986,4.502,38.945,10.711    c0.063,0.032,0.125,0.064,0.189,0.095c14.509,7.02,21.616,19.792,21.728,39.05c0.053,8.994,6.867,16.04,15.512,16.041    c0.016,0,0.085,0,0.101,0c6.841-0.042,12.771-4.473,14.754-11.024c9.57-31.602-1.583-63.106-29.12-82.228    c-11.086-7.662-24.07-13.662-38.67-17.892c-0.093-3.819-0.772-15.899-5.441-31.462c22.628-20.085,39.193-45.502,46.87-72.072    c1.546-5.35,2.516-11.008,2.962-17.173c0.074-0.048,0.151-0.093,0.226-0.141c24.579-15.923,37.893-57.129,15.785-105.077    c-1.943-4.214-5.86-7.712-10.856-5.321c-4.814,2.304-4.694,7.421-2.766,11.603c11.038,23.938,10.833,42.798,8.717,54.403    c-3.197,17.536-15.353,36.679-35.196,36.679c-23.836,0-42.048-24.886-49.026-45.201c-0.019-0.056-0.041-0.113-0.06-0.169    c-4.177-12.348-4.386-25.475-4.338-38.374c0.074-21.012,0.148-42.723-17.599-67.664c20.357,0.274,55.654,5.481,81.125,34.715    c2.721,3.123,7.459,3.448,10.582,0.728c3.123-2.721,3.449-7.458,0.728-10.582c-30.502-35.007-72.632-40.009-95.071-39.87    c-5.206,0.031-9.879,2.944-12.196,7.601c-2.314,4.65-1.82,10.126,1.289,14.292c14.876,19.928,16.102,37.433,16.149,55.575    c-13.009-2.789-26.414-3.954-39.71-3.507c-9.132,0.307-16.497,8.227-16.034,17.369c3.02,59.623,33.031,87.813,96.858,90.439    c-6.992,13.223-17.359,23.417-26.719,30.645c-1.691-1.915-3.465-3.815-5.33-5.696c-32.362-32.642-81.254-49.192-145.316-49.192    s-112.954,16.551-145.316,49.192c-1.865,1.881-3.639,3.782-5.33,5.696c-9.359-7.227-19.727-17.421-26.719-30.645    c63.827-2.624,93.838-30.814,96.858-90.44c0.634-12.51-10.474-17.45-21.186-17.45c-8.644,0-21.014,0.684-34.559,3.588    c0.047-18.142,1.273-35.647,16.149-55.575c6.615-8.861,0.084-21.826-10.907-21.892c-24.151-0.16-69.17,5.576-99.696,45.543    c-2.514,3.292-1.884,7.998,1.408,10.513c3.291,2.514,7.998,1.884,10.513-1.408c25.557-33.461,63.304-39.351,85.14-39.639    c-17.75,24.943-17.672,46.65-17.599,67.664c0.07,19.913-2.039,39.685-13.548,56.584c-11.598,17.029-34.209,35.798-55.457,22.646    c-18.479-11.438-28.848-43.249-12.913-81.918c1.578-3.83-0.248-8.213-4.077-9.792c-3.829-1.578-8.214,0.247-9.792,4.077    c-8.676,21.057-11.114,42.08-7.05,60.797c3.747,17.25,12.73,31.124,25.321,39.184c0.445,6.173,1.415,11.838,2.963,17.194    c7.677,26.57,24.242,51.986,46.87,72.072c-4.669,15.563-5.349,27.644-5.441,31.462c-14.6,4.231-27.585,10.232-38.683,17.902    C5.42,336.8-5.732,368.304,3.837,399.906c1.984,6.552,7.914,10.982,14.755,11.025c0.016,0,0.085-0.002,0.1,0    c8.646,0,15.46-7.047,15.512-16.041c0.111-19.257,7.219-32.03,21.728-39.049c0.063-0.031,0.127-0.063,0.189-0.095    c11.958-6.208,26.191-8.956,38.945-10.711c2.248,2.979,4.694,6.021,7.34,9.091c-22.136,12.303-38.053,27.39-47.356,44.949    c-11.429,21.572-10.037,47.061,3.82,69.93c8.775,14.483,32.514,4.988,28.324-11.789c-4.327-17.337-2.09-29.696,7.253-40.051    c10.97-11.229,25.358-18.156,37.992-23.452c3.514-1.473,7.244-2.921,11.293-4.393c3.973,2.448,8.175,4.82,12.608,7.089    c-10.646,12.12-18.007,24.838-21.912,37.918c-6.888,23.069-0.366,48.428,17.445,67.837c7.749,8.444,22.193,5.498,26.041-5.255    c1.396-3.902,1.19-8.113-0.582-11.859c-4.335-9.169-8.819-21.053-4.984-31.656c5.035-13.926,16.49-24.167,25.907-31.532    c3.28-2.566,6.707-5.055,10.384-7.56c14.304,2.817,30.042,4.454,47.355,4.454s33.051-1.637,47.355-4.454    c3.675,2.503,7.102,4.993,10.384,7.56c9.417,7.365,20.872,17.605,25.907,31.532c3.834,10.604-0.649,22.488-4.984,31.655    c-4.776,10.101,2.86,22.145,14.011,22.145c4.342,0,8.515-1.833,11.449-5.03c17.811-19.409,24.333-44.768,17.445-67.837    c-3.905-13.08-11.266-25.798-21.912-37.918c4.433-2.269,8.635-4.641,12.608-7.089c4.051,1.472,7.779,2.92,11.293,4.393    c12.635,5.296,27.022,12.222,37.993,23.452c9.344,10.355,11.581,22.714,7.253,40.049    C422.425,466.72,430.038,476.534,439.847,476.472z M189.015,410.047c-10.999,8.604-24.436,20.725-30.771,38.247    c-5.716,15.806-0.047,31.372,5.53,43.169c0.25,0.529-0.463,0.98-0.847,0.561c-14.206-15.48-19.486-35.444-14.124-53.404    c3.623-12.133,10.933-24.077,21.756-35.559c6.105,2.501,12.426,4.715,18.918,6.628    C189.322,409.807,189.168,409.927,189.015,410.047z M349.066,492.023c-0.392,0.426-1.095-0.035-0.848-0.561    c5.577-11.795,11.246-27.362,5.53-43.168c-6.336-17.522-19.773-29.644-30.771-38.246c-0.154-0.12-0.308-0.24-0.462-0.36    c6.493-1.913,12.813-4.127,18.919-6.628c10.823,11.482,18.133,23.426,21.756,35.559    C368.552,456.579,363.272,476.542,349.066,492.023z M493.3,395.93c-0.44-0.039-0.512-0.787-0.514-1.128    c-0.144-24.795-10.552-42.918-30.099-52.418c-11.527-5.965-24.337-9.103-36.356-11.1c4.107-6.654,7.151-12.576,9.312-17.254    c13.269,3.788,24.971,9.152,34.849,15.979c22.328,15.504,31.04,40.009,23.305,65.55c-0.065,0.215-0.268,0.362-0.49,0.372     M351.483,95.376c-0.043-0.876,0.673-1.588,1.531-1.616c1.529-0.048,3.102-0.073,4.674-0.073c8.552,0,21.097,0.731,34.594,3.977    c0.313,17.002,2.479,34.652,15.596,54.118c4.72,7.005,10.186,13.572,16.495,19.204c-23.374-2.133-40.491-8.47-52.025-19.202    C359.455,139.787,352.825,121.864,351.483,95.376z M449.914,186.721c6.34-0.14,12.739-0.097,18.994-1.289    c-0.4,2.306-0.907,4.518-1.525,6.656c-6.396,22.136-19.748,43.463-38.022,60.972c-3.353-7.757-7.729-15.919-13.43-24.051    C428.143,219.553,441.937,205.566,449.914,186.721z M158.976,93.76c0.852,0.028,1.575,0.756,1.532,1.618    c-1.342,26.489-7.97,44.413-20.86,56.407c-11.534,10.733-28.655,17.07-52.035,19.201c0.058-0.051,0.115-0.108,0.173-0.159    c6.245-5.58,11.659-12.12,16.333-19.054c13.113-19.462,15.279-37.11,15.592-54.11c13.496-3.246,26.041-3.977,34.594-3.977    C155.875,93.687,157.448,93.712,158.976,93.76z M44.608,192.088c-0.618-2.138-1.125-4.35-1.525-6.656    c1.46,0.279,2.936,0.484,4.424,0.613c4.665,0.406,14.395,0.672,14.57,0.676c7.976,18.849,21.77,32.832,33.984,42.289    c-5.701,8.132-10.077,16.294-13.43,24.051C64.356,235.552,51.004,214.224,44.608,192.088z M18.685,395.93    c-0.278-0.002-0.446-0.223-0.491-0.372c-7.735-25.541,0.978-50.045,23.292-65.54c9.889-6.835,21.594-12.2,34.863-15.988    c2.161,4.678,5.205,10.6,9.312,17.254c-12.02,1.997-24.829,5.134-36.356,11.1c-19.548,9.5-29.956,27.624-30.1,52.419    c-0.002,0.331-0.058,1.128-0.512,1.128 M128.697,379.03c-0.692,0.282-1.378,0.566-2.057,0.85    c-13.242,5.551-30.1,13.627-43.036,26.919c-0.061,0.063-0.12,0.126-0.179,0.19c-12.787,14.088-16.315,31.706-10.785,53.86    c0.013,0.051,0.051,0.206-0.058,0.388c-0.109,0.183-0.265,0.221-0.315,0.234c-0.233,0.057-0.456-0.054-0.568-0.239    c-11.055-18.245-12.292-38.341-3.395-55.135c8.367-15.793,23.396-29.459,44.713-40.673c0.116,0.113,0.237,0.222,0.353,0.335    C115.028,367.368,125.169,376.312,128.697,379.03z M209.227,398.981c-33.491-7.105-65.399-23.073-89.285-47.867    c-22.098-22.938-31.396-46.15-33.3-51.366c0.242-5.973,2.427-34.498,21.839-62.26c32.816-46.931,93.236-60.155,147.515-60.155    c59.782,0,105.025,14.993,134.474,44.561c20.157,20.24,33.717,49.102,34.88,77.851c-1.911,5.237-11.208,28.432-33.289,51.356    c-24.036,24.955-55.432,41.169-89.246,48.117C272.242,405.5,239.759,405.458,209.227,398.981z M428.387,406.799    c-12.936-13.292-29.795-21.368-43.037-26.919c-0.679-0.285-1.364-0.568-2.056-0.851c3.126-2.408,6.164-4.933,9.125-7.545    c2.231-1.968,4.425-3.982,6.555-6.06c21.317,11.214,36.347,24.88,44.713,40.673c8.897,16.794,7.66,36.89-3.394,55.135    c-0.298,0.492-1.083,0.18-0.942-0.383c5.53-22.153,2.002-39.771-10.785-53.859C428.507,406.925,428.447,406.861,428.387,406.799z"/>
	</g>
</g>















</svg>
